<svg xmlns="http://www.w3.org/2000/svg" width="72.097" height="67.947" viewBox="0 0 72.097 67.947"><path id="Trazado_26696" data-name="Trazado 26696" d="M1660.257,955.861h-1.332a3.883,3.883,0,0,0-3.878-3.809h-3.223V947.02a3.885,3.885,0,0,0-3.88-3.88h-43.093a3.885,3.885,0,0,0-3.88,3.88v5.032h-3.223a3.883,3.883,0,0,0-3.878,3.809h-1.332a2.192,2.192,0,0,0-2.19,2.19v11.281a2.192,2.192,0,0,0,2.19,2.19h4.776a2.192,2.192,0,0,0,2.19-2.19V958.051a2.192,2.192,0,0,0-2.19-2.19h-1.326a1.764,1.764,0,0,1,1.759-1.693h3.223v39.259a1.058,1.058,0,0,0,2.117,0V984.7a3.853,3.853,0,0,0,1.763.425h43.093a3.854,3.854,0,0,0,1.763-.425v17.084a1.765,1.765,0,0,1-1.763,1.763h-43.093a1.765,1.765,0,0,1-1.763-1.763v-3.467a1.058,1.058,0,1,0-2.117,0v3.467a3.884,3.884,0,0,0,3.88,3.88h1.1v2.46a2.966,2.966,0,0,0,2.963,2.963h4.757a2.966,2.966,0,0,0,2.962-2.963v-2.46h19.526v2.46a2.966,2.966,0,0,0,2.963,2.963h4.757a2.966,2.966,0,0,0,2.963-2.963v-2.46h1.1a3.884,3.884,0,0,0,3.88-3.88V954.168h3.223a1.765,1.765,0,0,1,1.761,1.693h-1.326a2.193,2.193,0,0,0-2.19,2.19v11.281a2.193,2.193,0,0,0,2.19,2.19h4.776a2.192,2.192,0,0,0,2.19-2.19V958.051A2.192,2.192,0,0,0,1660.257,955.861Zm-62.942,2.116a.074.074,0,0,1,.073.074v11.281a.073.073,0,0,1-.073.074h-4.776a.074.074,0,0,1-.074-.074V958.051a.074.074,0,0,1,.074-.074Zm17.2,50.146a.848.848,0,0,1-.846.846h-4.757a.847.847,0,0,1-.846-.846v-2.46h6.449v2.46Zm30.208,0a.848.848,0,0,1-.846.846h-4.757a.848.848,0,0,1-.846-.846v-2.46h6.45Zm4.981-52.345h-42.734a1.058,1.058,0,0,0,0,2.117h42.734v20.045h-6.99a1.058,1.058,0,1,0,0,2.117h6.99v1.189a1.766,1.766,0,0,1-1.763,1.764h-43.093a1.766,1.766,0,0,1-1.763-1.764v-1.189h34.691a1.058,1.058,0,0,0,0-2.117h-10.408l9.984-8.346a1.056,1.056,0,0,0-1.355-1.62l-11.922,9.966h-4.544l9.983-8.346a1.056,1.056,0,1,0-1.355-1.62l-11.922,9.966h-13.153V952.392h46.62Zm0-5.5h-46.62V947.02a1.765,1.765,0,0,1,1.763-1.764h43.093a1.766,1.766,0,0,1,1.763,1.764Zm10.623,19.055a.074.074,0,0,1-.074.074h-4.776a.074.074,0,0,1-.074-.074V958.051a.074.074,0,0,1,.074-.074h4.776a.074.074,0,0,1,.074.074Zm-43.844,26.94a1.766,1.766,0,0,0,1.763-1.764v-1.693a4.166,4.166,0,0,0-4.162-4.162h-6.49a1.765,1.765,0,0,0-1.763,1.763v1.693a4.167,4.167,0,0,0,4.162,4.162Zm-8.537-4.162v-1.341h6.138a2.048,2.048,0,0,1,2.046,2.046v1.34H1610A2.048,2.048,0,0,1,1607.95,992.11Zm34.85,4.162a4.166,4.166,0,0,0,4.162-4.162v-1.693a1.765,1.765,0,0,0-1.763-1.763h-6.49a4.167,4.167,0,0,0-4.162,4.162v1.693a1.766,1.766,0,0,0,1.763,1.764Zm-6.138-3.457a2.049,2.049,0,0,1,2.047-2.046h6.137v1.341a2.047,2.047,0,0,1-2.046,2.045h-6.138Zm-5.593,9.147a1.356,1.356,0,0,0,1.355-1.356v-2.791a1.356,1.356,0,0,0-1.355-1.356h-9.342a1.357,1.357,0,0,0-1.355,1.356v2.791a1.357,1.357,0,0,0,1.355,1.356Zm-8.582-3.386h7.821v1.27h-7.821Z" transform="translate(-1590.349 -943.14)" fill="#009fe3"></path></svg>