<svg xmlns="http://www.w3.org/2000/svg" width="108" height="71.061" viewBox="0 0 108 71.061"><g id="Grupo_10864" data-name="Grupo 10864" transform="translate(0 0)"><path id="Path_358" data-name="Path 358" d="M-6792.946,5031.382a18.134,18.134,0,0,0-25.529-2.414,18.16,18.16,0,0,0-2.41,2.414,23.969,23.969,0,0,0,0,31.021l13.973,15.822,13.967-15.822A23.971,23.971,0,0,0-6792.946,5031.382Zm-2.447,28.762-11.515,13.151-11.507-13.151a20.545,20.545,0,0,1,0-26.707,15.063,15.063,0,0,1,21.229-1.764,15.049,15.049,0,0,1,1.765,1.764,20.55,20.55,0,0,1,0,26.707Z" transform="translate(6826.581 -5011.275)" fill="#009fe3"></path><path id="Path_359" data-name="Path 359" d="M-6768.033,5057.5l10.681-11.894a18.049,18.049,0,0,0,0-23.421,14.041,14.041,0,0,0-19.795-1.568,14.192,14.192,0,0,0-1.572,1.568,18.054,18.054,0,0,0,0,23.421Zm-8.219-33.077a10.6,10.6,0,0,1,14.915-1.524,10.653,10.653,0,0,1,1.523,1.524,14.374,14.374,0,0,1,0,18.9l-8.22,9.249-8.219-9.249A14.866,14.866,0,0,1-6776.251,5024.418Z" transform="translate(6861.037 -5017.253)" fill="#009fe3"></path><path id="Path_360" data-name="Path 360" d="M-6776.711,5051.889a1.819,1.819,0,0,0-2.053,1.234,7.575,7.575,0,0,1-1.03,2.259,1.611,1.611,0,0,0,.207,2.26,1.572,1.572,0,0,0,1.027.411,1.465,1.465,0,0,0,1.233-.614,7.827,7.827,0,0,0,1.644-3.5,1.465,1.465,0,0,0-.711-1.949A1.534,1.534,0,0,0-6776.711,5051.889Z" transform="translate(6863.309 -4989.87)" fill="#009fe3"></path><path id="Path_363" data-name="Path 363" d="M-6808.23,5055.089h-3.288a1.646,1.646,0,0,0-1.644,1.645,1.644,1.644,0,0,0,1.644,1.644h3.288a1.762,1.762,0,0,0,1.644-1.644,1.62,1.62,0,0,0-1.594-1.645Z" transform="translate(6837.198 -4987.316)" fill="#009fe3"></path><path id="Path_364" data-name="Path 364" d="M-6792.788,5038.4h-.411a1.642,1.642,0,0,0-1.644,1.643,1.643,1.643,0,0,0,1.644,1.645h3.286a1.644,1.644,0,0,0,1.646-1.645,1.644,1.644,0,0,0-1.646-1.643Z" transform="translate(6851.692 -5000.523)" fill="#009fe3"></path><path id="Path_366" data-name="Path 366" d="M-6781.982,5038.4a1.642,1.642,0,0,0-1.643,1.643,1.642,1.642,0,0,0,1.643,1.645h3.289a1.641,1.641,0,0,0,1.642-1.645,1.64,1.64,0,0,0-1.642-1.643Z" transform="translate(6860.568 -5000.523)" fill="#009fe3"></path><path id="Path_368" data-name="Path 368" d="M-6787.633,5041.686h3.289a1.644,1.644,0,0,0,1.643-1.645,1.643,1.643,0,0,0-1.643-1.643h-3.289a1.642,1.642,0,0,0-1.644,1.643A1.643,1.643,0,0,0-6787.633,5041.686Z" transform="translate(6856.096 -5000.523)" fill="#009fe3"></path><path id="Path_373" data-name="Path 373" d="M-6785.968,5055.089h-3.286a1.646,1.646,0,0,0-1.646,1.645,1.645,1.645,0,0,0,1.646,1.644h3.286a1.762,1.762,0,0,0,1.644-1.644,1.62,1.62,0,0,0-1.595-1.645Z" transform="translate(6854.813 -4987.316)" fill="#009fe3"></path><path id="Path_374" data-name="Path 374" d="M-6791.533,5055.089h-3.289a1.643,1.643,0,0,0-1.642,1.645,1.642,1.642,0,0,0,1.642,1.644h3.289a1.764,1.764,0,0,0,1.643-1.644,1.619,1.619,0,0,0-1.595-1.645Z" transform="translate(6850.408 -4987.316)" fill="#009fe3"></path><path id="Path_375" data-name="Path 375" d="M-6780.614,5048.475a1.765,1.765,0,0,0-1.645-1.645h-3.286a1.645,1.645,0,0,0-1.646,1.645,1.645,1.645,0,0,0,1.646,1.643h3.286a1.62,1.62,0,0,0,1.645-1.594Z" transform="translate(6857.748 -4993.851)" fill="#009fe3"></path><path id="Path_376" data-name="Path 376" d="M-6786.18,5048.475a1.769,1.769,0,0,0-1.646-1.645h-3.288a1.644,1.644,0,0,0-1.643,1.645,1.644,1.644,0,0,0,1.643,1.643h3.288a1.622,1.622,0,0,0,1.646-1.594Z" transform="translate(6853.344 -4993.851)" fill="#009fe3"></path><path id="Path_377" data-name="Path 377" d="M-6780.493,5055.089h-3.083a1.645,1.645,0,0,0-1.645,1.645,1.643,1.643,0,0,0,1.645,1.644h3.083a1.645,1.645,0,0,0,1.645-1.644A1.646,1.646,0,0,0-6780.493,5055.089Z" transform="translate(6859.304 -4987.316)" fill="#009fe3"></path><path id="Path_378" data-name="Path 378" d="M-6777.414,5052.574c.409,0,.615-.205,1.028-.411a1.627,1.627,0,0,0,.2-2.26,9.067,9.067,0,0,0-3.08-2.445,1.7,1.7,0,0,0-2.223.927,1.7,1.7,0,0,0,.783,2.153,8.03,8.03,0,0,1,2.055,1.645,2.21,2.21,0,0,0,1.233.412Z" transform="translate(6862.159 -4993.456)" fill="#009fe3"></path><path id="Path_381" data-name="Path 381" d="M-6802.663,5055.089h-3.289a1.645,1.645,0,0,0-1.645,1.645,1.643,1.643,0,0,0,1.645,1.644h3.289a1.763,1.763,0,0,0,1.643-1.644,1.62,1.62,0,0,0-1.595-1.645Z" transform="translate(6841.602 -4987.316)" fill="#009fe3"></path><path id="Path_382" data-name="Path 382" d="M-6793.609,5050.612a1.546,1.546,0,0,0,1.438-1.027,1.727,1.727,0,0,0-.822-2.26,5.2,5.2,0,0,1-2.054-1.645,1.605,1.605,0,0,0-2.27.02,1.607,1.607,0,0,0-.178,2.035,9.123,9.123,0,0,0,3.082,2.447c.412.411.617.411.823.411Z" transform="translate(6849.373 -4995.122)" fill="#009fe3"></path><path id="Path_384" data-name="Path 384" d="M-6797.1,5055.089h-3.287a1.646,1.646,0,0,0-1.645,1.645,1.644,1.644,0,0,0,1.645,1.644h3.287a1.763,1.763,0,0,0,1.645-1.644,1.62,1.62,0,0,0-1.595-1.645Z" transform="translate(6846.004 -4987.316)" fill="#009fe3"></path><path id="Path_385" data-name="Path 385" d="M-6795.481,5045.029a4.527,4.527,0,0,1,1.027-2.261,1.627,1.627,0,0,0-.411-2.261,1.627,1.627,0,0,0-2.261.413,7.627,7.627,0,0,0-1.646,3.7,1.5,1.5,0,0,0,1.093,1.821,1.415,1.415,0,0,0,.143.028h.2C-6796.3,5046.261-6795.481,5045.851-6795.481,5045.029Z" transform="translate(6848.551 -4999.08)" fill="#009fe3"></path><path id="Path_386" data-name="Path 386" d="M-6770.434,5039a9.04,9.04,0,0,0,9.039-9.041,9.041,9.041,0,0,0-9.039-9.042,9.047,9.047,0,0,0-9.044,9.023A9.121,9.121,0,0,0-6770.434,5039Zm0-14.793a5.871,5.871,0,0,1,5.752,5.752,5.752,5.752,0,0,1-5.752,5.754,5.752,5.752,0,0,1-5.754-5.754,5.741,5.741,0,0,1,5.733-5.752Z" transform="translate(6863.851 -5014.352)" fill="#009fe3"></path><path id="Path_387" data-name="Path 387" d="M-6811.242,5030.117a9.863,9.863,0,0,0-9.864,9.862,9.865,9.865,0,0,0,9.864,9.864,9.863,9.863,0,0,0,9.862-9.864A10,10,0,0,0-6811.242,5030.117Zm0,16.439a6.575,6.575,0,0,1-6.576-6.577,6.577,6.577,0,0,1,6.576-6.575,6.579,6.579,0,0,1,6.577,6.575h0a6.5,6.5,0,0,1-6.41,6.577Z" transform="translate(6830.915 -5007.074)" fill="#009fe3"></path></g></svg>