<svg xmlns="http://www.w3.org/2000/svg" width="90.815" height="64.654" viewBox="0 0 90.815 64.654"><g id="Grupo_10867" data-name="Grupo 10867" transform="translate(-831.498 -1182.994)"><g id="Grupo_10865" data-name="Grupo 10865" transform="translate(831.498 1182.994)"><path id="Trazado_7421" data-name="Trazado 7421" d="M126.859,57.212v6.364a1.077,1.077,0,0,1-2.155,0V57.212a8.96,8.96,0,0,0-8.966-8.966,6.616,6.616,0,0,1-5.691-3.2,1.077,1.077,0,1,1,1.84-1.121,4.476,4.476,0,0,0,3.851,2.162,11.114,11.114,0,0,1,11.121,11.12Zm-18.8-10.8a1.077,1.077,0,0,1-.823,1.282,10.312,10.312,0,0,1-8.015-1.568,6.534,6.534,0,0,1-4.874,2.12,8.961,8.961,0,0,0-8.966,8.966v6.364a1.077,1.077,0,0,1-2.155,0V57.212a11.114,11.114,0,0,1,11.12-11.12,4.492,4.492,0,0,0,4.5-4.49v-.284a14.434,14.434,0,0,1-8.2-12.477,4.4,4.4,0,0,1-3.377-4.258V19c-.059-2.734.347-9.581,5.34-14.394,6.165-5.943,16.051-5.565,23.321-2.066a1.08,1.08,0,0,1,.228,1.794,14.542,14.542,0,0,1,8.9,6.4,1.19,1.19,0,0,1,.248.847,1.089,1.089,0,0,1-.309.684,7.034,7.034,0,0,0-2.036,4.969v7.349a1.077,1.077,0,0,1-2.155,0V17.233a9.172,9.172,0,0,1,2.093-5.857,12.445,12.445,0,0,0-8.933-5.245l-1.894-.2a1.078,1.078,0,0,1-.3-2.068l.861-.355C101.414-.4,89.419,3.941,89.419,18.985v5.6a2.224,2.224,0,0,0,1.212,1.971V19.568a7.55,7.55,0,0,1,7.542-7.542H111.91a7.55,7.55,0,0,1,7.542,7.542V28.39a14.43,14.43,0,0,1-18.474,13.744,6.587,6.587,0,0,1-.564,2.2,8.159,8.159,0,0,0,6.361,1.254,1.078,1.078,0,0,1,1.282.823Zm-3.016-5.848A12.269,12.269,0,0,0,117.3,28.308v-8.74a5.393,5.393,0,0,0-5.387-5.387H98.173a5.393,5.393,0,0,0-5.387,5.387v8.739a12.269,12.269,0,0,0,12.256,12.256ZM115.95,59.132h-3.232a1.077,1.077,0,1,0,0,2.155h3.232a1.077,1.077,0,0,0,0-2.155Z" transform="translate(-83.224 0)" fill="#009fe3"></path><path id="Trazado_7422" data-name="Trazado 7422" d="M236.046,230.833a4.856,4.856,0,0,0,4.386,0,.947.947,0,0,0-.858-1.689,2.955,2.955,0,0,1-2.67,0,.947.947,0,0,0-.858,1.689Z" transform="translate(-216.295 -200.119)" fill="#009fe3"></path><path id="Trazado_7423" data-name="Trazado 7423" d="M224.3,261.294a.947.947,0,0,0,.21,1.323,6.277,6.277,0,0,0,7.4,0,.947.947,0,1,0-1.113-1.532,4.388,4.388,0,0,1-5.171,0,.947.947,0,0,0-1.323.209Z" transform="translate(-206.326 -227.958)" fill="#009fe3"></path></g><g id="Grupo_10866" data-name="Grupo 10866" transform="translate(873.296 1182.994)"><path id="Trazado_7424" data-name="Trazado 7424" d="M110.912,63.544l-.971-5.567a8.476,8.476,0,0,0-5.782-6.628l-9.2-2.892a.941.941,0,0,1-.65-.778l-.665-5.267a.962.962,0,0,0-.032-.15,20.387,20.387,0,0,0,2.27-1.872.947.947,0,1,0-1.311-1.366c-2.949,2.831-7.036,4.564-8.279,4.564-1.563,0-7.889-2.925-10.278-7.243a26.57,26.57,0,0,1-3.087-11.4,3.845,3.845,0,0,0,2.922-3.727v-1.8a4.046,4.046,0,0,1,4.041-4.041,4.686,4.686,0,0,0,4.447-3.226q.177.2.365.389a10.524,10.524,0,0,0,4.487,2.695.947.947,0,1,0,.537-1.816A8.625,8.625,0,0,1,86.05,11.2a8.751,8.751,0,0,1-2.532-6.19A3.117,3.117,0,0,1,86.63,1.895H90a12.175,12.175,0,0,1,12.171,12.181v9.07l-1.384-.018a1.952,1.952,0,0,1-1.92-1.944v-.706a6.764,6.764,0,0,0-4.776-6.433.947.947,0,1,0-.547,1.813,4.857,4.857,0,0,1,3.429,4.62v.706a3.857,3.857,0,0,0,2.932,3.728,26.417,26.417,0,0,1-2.861,10.83.947.947,0,1,0,1.676.883,25.031,25.031,0,0,0,1.3-2.922,7.1,7.1,0,0,0,1.224-.2v4.056a.947.947,0,1,0,1.894,0V32.7a7.107,7.107,0,0,0,3.445-6.084,3.468,3.468,0,0,0-2.521-3.329V14.076A14.07,14.07,0,0,0,90,0H86.63a5.014,5.014,0,0,0-4.742,3.409,3.776,3.776,0,0,0-1.1-.167,12.025,12.025,0,0,0-7.8,2.873.947.947,0,1,0,1.229,1.441,10.131,10.131,0,0,1,6.57-2.419,1.865,1.865,0,0,1,.842.2,10.682,10.682,0,0,0,1.043,4.317V10.69a2.787,2.787,0,0,1-2.784,2.784,5.942,5.942,0,0,0-5.935,5.936v1.8a1.947,1.947,0,0,1-1.945,1.945H70.662V15.265a10.024,10.024,0,0,1,1.065-4.526.947.947,0,1,0-1.694-.848,11.9,11.9,0,0,0-1.265,5.373v8.025a3.468,3.468,0,0,0-2.521,3.329,7.1,7.1,0,0,0,3.194,5.924v5.014a.947.947,0,1,0,1.894,0V33.429a7.084,7.084,0,0,0,1.415.269,24.894,24.894,0,0,0,1.606,3.563A16.1,16.1,0,0,0,79.2,42.376c0,.012,0,.023-.006.035l-.665,5.268a.941.941,0,0,1-.65.778L68.67,51.35a8.473,8.473,0,0,0-5.777,6.627l-.971,5.567a.947.947,0,1,0,1.866.325l.971-5.567a6.582,6.582,0,0,1,4.484-5.147L73.8,51.725c2.147,2.954,6.206,4.952,10.827,5.367l-1.677,2.32a.947.947,0,0,0,0,1.109l2.7,3.74a.947.947,0,0,0,1.535,0l2.7-3.74a.947.947,0,0,0,0-1.109l-1.677-2.32c4.621-.415,8.68-2.413,10.827-5.367l4.547,1.429a6.585,6.585,0,0,1,4.49,5.149l.971,5.567a.947.947,0,0,0,1.866-.326Zm-6.218-36.926a5.225,5.225,0,0,1-4.007,5.068,29.644,29.644,0,0,0,1.11-6.652l1.31.017h.012A1.573,1.573,0,0,1,104.694,26.618Zm-36.552,0a1.573,1.573,0,0,1,1.574-1.567h1.321A30.388,30.388,0,0,0,72.1,31.676,5.225,5.225,0,0,1,68.141,26.618ZM86.418,62.09l-1.534-2.123,1.534-2.123,1.534,2.123Zm0-6.811c-4.47,0-8.507-1.6-10.69-4.162l2.717-.854A2.84,2.84,0,0,0,80.4,47.946a12.049,12.049,0,0,0,1.854.867.991.991,0,0,0,1.216-.562.947.947,0,0,0-.562-1.216,10.164,10.164,0,0,1-2.245-1.161l.3-2.372a13.36,13.36,0,0,0,5.329,1.978A13.655,13.655,0,0,0,91.859,43.4l.313,2.478a10.14,10.14,0,0,1-5.288,1.775.947.947,0,0,0-.9.989,1.023,1.023,0,0,0,.989.9,12.026,12.026,0,0,0,5.464-1.595,2.84,2.84,0,0,0,1.956,2.317l2.717.854c-2.183,2.559-6.22,4.162-10.69,4.162Z" transform="translate(-61.908 0)" fill="#009fe3"></path><path id="Trazado_7425" data-name="Trazado 7425" d="M235.048,251.879a4.856,4.856,0,0,0,4.386,0,.947.947,0,0,0-.858-1.689,2.955,2.955,0,0,1-2.67,0,.947.947,0,0,0-.858,1.689Z" transform="translate(-212.732 -218.507)" fill="#009fe3"></path><path id="Trazado_7426" data-name="Trazado 7426" d="M223.3,282.34a.947.947,0,0,0,.21,1.323,6.277,6.277,0,0,0,7.4,0,.947.947,0,0,0-1.113-1.532,4.388,4.388,0,0,1-5.171,0,.947.947,0,0,0-1.323.21Z" transform="translate(-202.763 -246.346)" fill="#009fe3"></path></g></g></svg>