<svg xmlns="http://www.w3.org/2000/svg" xmlns:xlink="http://www.w3.org/1999/xlink" width="798" height="6.28" viewBox="0 0 798 6.28">
  <defs>
    <linearGradient id="linear-gradient" x1="-0.218" y1="0.5" x2="0.823" y2="0.5" gradientUnits="objectBoundingBox">
      <stop offset="0" stop-color="#38facb"/>
      <stop offset="0.212" stop-color="#38facb"/>
      <stop offset="1" stop-color="#20caff"/>
    </linearGradient>
  </defs>
  <path id="Trazado_26699" data-name="Trazado 26699" d="M1157.432,609.084H844.094a3.15,3.15,0,0,1-3.14-3.14h0a3.15,3.15,0,0,1,3.14-3.14h313.338a3.149,3.149,0,0,1,3.14,3.14h0A3.149,3.149,0,0,1,1157.432,609.084Zm-326.921-3.14h0a3.15,3.15,0,0,0-3.14-3.14H760.536a3.149,3.149,0,0,0-3.14,3.14h0a3.149,3.149,0,0,0,3.14,3.14H827.37A3.15,3.15,0,0,0,830.51,605.944Zm-85.651,0h0a3.149,3.149,0,0,0-3.14-3.14H716.665a3.149,3.149,0,0,0-3.14,3.14h0a3.149,3.149,0,0,0,3.14,3.14h25.054A3.149,3.149,0,0,0,744.86,605.944Zm-41.78,0h0a3.149,3.149,0,0,0-3.14-3.14H365.712a3.149,3.149,0,0,0-3.14,3.14h0a3.149,3.149,0,0,0,3.14,3.14H699.939A3.149,3.149,0,0,0,703.079,605.944Z" transform="translate(-362.572 -602.804)" fill="url(#linear-gradient)"/>
</svg>
