<svg xmlns="http://www.w3.org/2000/svg" width="71.133" height="71.133" viewBox="0 0 71.133 71.133"><g id="Grupo_10863" data-name="Grupo 10863" transform="translate(0 0)"><g id="Grupo_8496" data-name="Grupo 8496" transform="translate(51.214 63.775)"><g id="Grupo_8495" data-name="Grupo 8495"><path id="Trazado_7415" data-name="Trazado 7415" d="M371.274,459.728a1.39,1.39,0,0,0-1.9-.5l-.054.031a1.389,1.389,0,1,0,1.394,2.4l.053-.031A1.389,1.389,0,0,0,371.274,459.728Z" transform="translate(-368.63 -459.036)" fill="#009fe3"></path></g></g><g id="Grupo_8498" data-name="Grupo 8498" transform="translate(0 0)"><g id="Grupo_8497" data-name="Grupo 8497" transform="translate(0 0)"><path id="Trazado_7416" data-name="Trazado 7416" d="M66.367,17.8A35.557,35.557,0,0,0,1.227,26.371,35.564,35.564,0,0,0,48.293,68.784a1.389,1.389,0,0,0-1-2.593,32.568,32.568,0,0,1-31.341-4.307l1.245-6.5.6-.195a4.327,4.327,0,0,0,2.775-5.446l-.44-1.354a1.534,1.534,0,0,1,0-.958,4.322,4.322,0,0,0-3.278-5.589l-3.136-.613-6.05-4.6a1.389,1.389,0,0,0-1.27-.215L2.86,37.567a32.752,32.752,0,0,1,0-3.793c.14.13.231.219.287.277a1.456,1.456,0,0,0,1.357.7,20.178,20.178,0,0,0,2.49-.283c1.172-.173,2.338-.368,2.349-.37a1.389,1.389,0,0,0,.918-2.152l-1.7-2.5,2.44-1.745a1.39,1.39,0,0,0,.4-.44l3.782-6.6L16.7,19.021A5.868,5.868,0,0,0,17.829,12.8,6.389,6.389,0,0,0,15.3,9.816,32.737,32.737,0,0,1,35.193,2.8L32.712,5.917l-9.2,3.225a1.389,1.389,0,0,0-.825.781l-2.569,6.228a1.389,1.389,0,0,0,.154,1.337l3.752,5.256a13.2,13.2,0,0,0-1.685,2.091c-.274.389-.533.756-.711.962-.155.179-.311.354-.465.528a13,13,0,0,0-2.234,3.1,8.279,8.279,0,0,0,.687,8.369,7.8,7.8,0,0,0,7.362,3.159,10.817,10.817,0,0,0,1.357-.274c1.191-.295,1.568-.324,1.95.033.186.174.2.207.2.8a5.4,5.4,0,0,0,.124,1.377,4.39,4.39,0,0,0,1.174,1.918,3.113,3.113,0,0,1,.5.643c.433,1.038.245,1.613-.169,2.874q-.053.162-.108.331c-.628,1.944.247,3.873,1.02,5.574.251.553.488,1.074.643,1.535,1.249,3.707,2.186,4.555,2.937,4.9a2.9,2.9,0,0,0,1.212.257c2,0,4.092-1.86,5.052-3.038a4.27,4.27,0,0,0,.86-2.023,2.215,2.215,0,0,1,.178-.621,3.64,3.64,0,0,1,.456-.586A4.819,4.819,0,0,0,45.5,52.761a3.057,3.057,0,0,1,.943-1.479c.1-.1.2-.21.307-.329,1.85-2.014,1.374-3.552.869-5.18-.425-1.37.318-2.247,2.114-3.919a15.006,15.006,0,0,0,2.206-2.376,3,3,0,0,0,.588-2.783c-.5-1.166-1.78-1.362-2.806-1.519a4.6,4.6,0,0,1-1.213-.284,6.568,6.568,0,0,1-1.894-2.869c-.1-.226-.2-.449-.3-.665-.181-.386-.361-.853-.552-1.347a11.655,11.655,0,0,0-2.053-3.825c-.877-.929-2.529-1.376-3.987-1.771-.49-.133-.953-.258-1.258-.371a1.387,1.387,0,0,0-.8-.049,3.6,3.6,0,0,0-1.481.613,1.726,1.726,0,0,0-.495.665,15.891,15.891,0,0,1-1.638-1l-.027-.018a1.97,1.97,0,0,0-.124-1.337c-.776-1.642-3.352-1.513-3.86-1.47-.289.024-.654.037-1.04.051-.607.022-1.278.046-1.941.12l.034-.1a3.552,3.552,0,0,1,3.335-2.347h.79a1.389,1.389,0,0,0,0-2.778h-.79a6.341,6.341,0,0,0-5.378,3l-2.072-2.9,2.039-4.942,8.989-3.152a1.39,1.39,0,0,0,.627-.445l4-5.013A32.762,32.762,0,0,1,63.961,19.184a32.421,32.421,0,0,1,3.274,7.952l-.589.525a3.711,3.711,0,0,0-1.236,2.7c0,.011,0,.022,0,.033l-.959-2.639a3.469,3.469,0,0,0-.626-1.073l-1.711-2a3.482,3.482,0,0,0-2.651-1.222H57.366a2.012,2.012,0,0,0-1.674,3.128l.212.318a15.4,15.4,0,0,1-4.587,2.724l-2.872-5.5V22.9a1.388,1.388,0,0,0-.43-1L45.43,19.425a1.391,1.391,0,0,0-.5-.306L42.6,18.3a1.389,1.389,0,0,0-.921,2.621l2.046.719,1.94,1.852v.974a1.39,1.39,0,0,0,.158.643L49.42,32a1.389,1.389,0,0,0,1.712.66l1.047-.386A18.181,18.181,0,0,0,58.7,28.1a1.389,1.389,0,0,0,.174-1.753l-.074-.111h.663a.707.707,0,0,1,.538.248l1.711,2a.706.706,0,0,1,.127.218L63.727,33.9a1.389,1.389,0,0,0,2.288.507l.9-.9a4.337,4.337,0,0,0,1.149-2.089A32.9,32.9,0,0,1,55.848,61.337a1.389,1.389,0,1,0,1.715,2.186,35.564,35.564,0,0,0,8.8-45.727ZM6.569,39.283,12.3,43.639a1.388,1.388,0,0,0,.574.258l3.453.675a1.544,1.544,0,0,1,1.171,2,4.294,4.294,0,0,0,0,2.682l.44,1.354a1.546,1.546,0,0,1-.991,1.945L15.56,53a1.389,1.389,0,0,0-.935,1.06l-1.111,5.8a33.146,33.146,0,0,1-6.329-7.894A32.607,32.607,0,0,1,3.15,40.394Zm8.1-22.158-1.634,1.751a1.4,1.4,0,0,0-.19.257L9.13,25.613l-3.3,2.358a1.389,1.389,0,0,0-.34,1.913l1.234,1.809c-.711.106-1.349.193-1.773.239-.082-.078-.167-.158-.255-.24-.33-.307-.789-.716-1.473-1.315a32.837,32.837,0,0,1,9.785-18.583,3.612,3.612,0,0,1,2.251,2.061A3.083,3.083,0,0,1,14.666,17.125Zm11.327,7.592A8.909,8.909,0,0,1,29.1,24.28c.421-.015.818-.029,1.174-.059a3.778,3.778,0,0,1,.592,0,1.389,1.389,0,0,0,.639,1.728c.261.139.623.381,1.007.637a8.005,8.005,0,0,0,3.473,1.618,2.305,2.305,0,0,0,1.887-.786c.02-.02.039-.041.059-.059a1.488,1.488,0,0,0,.372-.455c.222.063.456.127.695.192a9.251,9.251,0,0,1,2.692,1,9.861,9.861,0,0,1,1.483,2.919c.209.541.406,1.051.627,1.524.1.2.189.412.284.624a8.676,8.676,0,0,0,2.909,4.058,5.743,5.743,0,0,0,2.312.7l.3.048a13.433,13.433,0,0,1-1.763,1.85c-1.72,1.6-3.86,3.595-2.874,6.775.465,1.5.487,1.664-.261,2.478-.1.111-.2.212-.286.307a5.709,5.709,0,0,0-1.566,2.541,2.168,2.168,0,0,1-.566.883,6.2,6.2,0,0,0-.777,1.029,4.5,4.5,0,0,0-.5,1.476,1.7,1.7,0,0,1-.29.814,8.1,8.1,0,0,1-1.754,1.551,2.292,2.292,0,0,1-1.164.463,9.911,9.911,0,0,1-1.5-3.263c-.2-.594-.478-1.205-.746-1.8-.592-1.3-1.2-2.651-.906-3.572q.053-.163.1-.319a6.069,6.069,0,0,0,.093-4.81,5.01,5.01,0,0,0-1.011-1.441,2.582,2.582,0,0,1-.531-.7,3,3,0,0,1-.046-.7,3.446,3.446,0,0,0-1.079-2.844c-1.537-1.439-3.33-1-4.517-.7a8.715,8.715,0,0,1-1.014.211,4.991,4.991,0,0,1-4.782-2.021,5.5,5.5,0,0,1-.431-5.561,10.548,10.548,0,0,1,1.8-2.442c.161-.182.324-.365.487-.552.271-.312.569-.735.884-1.183A10.044,10.044,0,0,1,25.993,24.717Z" transform="translate(0 -0.001)" fill="#009fe3"></path></g></g><g id="Grupo_8500" data-name="Grupo 8500" transform="translate(48.646 44.279)"><g id="Grupo_8499" data-name="Grupo 8499"><path id="Trazado_7417" data-name="Trazado 7417" d="M358.468,322.263l-.668-2.519a1.389,1.389,0,0,0-2.564-.306c-.152.281-.289.578-.422.865a5.975,5.975,0,0,1-.694,1.26,3.068,3.068,0,0,1-.816.484,3.82,3.82,0,0,0-2.314,2.249,4.071,4.071,0,0,0-.092,1.96,1.264,1.264,0,0,1-.036.819l-.014.032c-.442,1.038-1.265,2.969-.111,4.612a2.893,2.893,0,0,0,2.361,1.473,2.25,2.25,0,0,0,.37-.03c1.417-.232,2.482-1.706,3.353-4.639l1.634-5.507A1.39,1.39,0,0,0,358.468,322.263Zm-4.309,5.469a8.429,8.429,0,0,1-1.063,2.5c-.026-.033-.054-.071-.085-.114-.266-.378.131-1.31.394-1.926l.014-.033a3.909,3.909,0,0,0,.228-2.315,1.457,1.457,0,0,1-.006-.721c.054-.173.38-.341.87-.578.217-.105.457-.22.7-.36Z" transform="translate(-350.15 -318.712)" fill="#009fe3"></path></g></g><g id="Grupo_8502" data-name="Grupo 8502" transform="translate(35.572 16.402)"><g id="Grupo_8501" data-name="Grupo 8501"><path id="Trazado_7418" data-name="Trazado 7418" d="M257.987,118.17l-.094-.033a1.389,1.389,0,0,0-.92,2.622l.094.033a1.389,1.389,0,0,0,.92-2.622Z" transform="translate(-256.044 -118.059)" fill="#009fe3"></path></g></g></g></svg>